<?xml version="1.0" encoding="UTF-8"?>
<svg id="Layer_2" data-name="Layer 2" xmlns="http://www.w3.org/2000/svg" viewBox="0 0 69.89 69.89">
  <g id="Layer_1-2" data-name="Layer 1">
    <circle cx="34.95" cy="34.95" r="34.45" style="fill: #f9b226; stroke: #879398; stroke-miterlimit: 10;"/>
    <path d="M22.56,52.79c-.84,0-1.44-.07-1.79-.2-.35-.13-.53-.35-.53-.66,0-.13.03-.28.1-.43s.17-.31.3-.48l11.3-16.85-10.09-15.13c-.13-.17-.24-.33-.3-.48-.07-.15-.1-.29-.1-.43,0-.27.18-.48.53-.63s.95-.23,1.79-.23h.71c.54,0,.98.05,1.34.15.35.1.63.3.83.61l8.17,12.31,8.22-12.36c.17-.27.46-.45.88-.55.42-.1.85-.15,1.29-.15h.3c.84,0,1.44.07,1.79.2.35.13.53.35.53.66,0,.13-.03.28-.1.43s-.17.31-.3.48l-10.04,15.03,11.3,16.95c.13.17.24.33.3.48s.1.29.1.43c0,.27-.17.48-.5.63-.34.15-.94.23-1.82.23h-.81c-.54,0-.98-.05-1.34-.15-.35-.1-.63-.3-.83-.61l-9.33-14.07-9.33,14.12c-.17.27-.45.45-.86.56-.4.1-.84.15-1.31.15h-.4Z" style="fill: #384850;"/>
  </g>
</svg>